<?xml version="1.0" encoding="UTF-8"?>
<svg id="uuid-970ea6de-e452-4528-b2c7-b19a0b08015f" data-name="uuid-3576a537-e74c-4424-8917-e99fcba10936" xmlns="http://www.w3.org/2000/svg" width="60mm" height="13.38mm" xmlns:xlink="http://www.w3.org/1999/xlink" viewBox="0 0 170.08 37.92">
  <defs>
    <style>
      .uuid-6c98e37b-e590-4028-b053-b0edcf6130d8 {
        clip-path: url(#uuid-e277108d-3eac-4110-9546-af9beb478027);
      }

      .uuid-7cf3219c-a795-4225-985a-599712c02b2a {
        fill: none;
      }

      .uuid-19c5ce74-4e5f-463c-a212-927219e516fd {
        clip-path: url(#uuid-37acd3c5-65fb-4bc0-9205-e088052f7660);
      }

      .uuid-48efc3a7-f6f8-4d24-af3e-5ee6c47d0bb4 {
        fill: #008c3c;
      }

      .uuid-e69809cc-ec59-4ce3-9407-5e9cdcf4dd9c {
        fill: #007eb2;
      }

      .uuid-d09230a4-7aab-4a5c-be63-f869fc8aba47 {
        fill: #12120d;
      }

      .uuid-d4f3ba51-e2e9-4c05-b594-687e9902cea9 {
        mask: url(#uuid-21b09e18-7f6d-4fc9-834f-3cff07a468d1);
      }

      .uuid-e61c2ff9-b789-420c-9b75-e9bddac03a25 {
        clip-path: url(#uuid-d4ebf40f-3b39-4122-9d26-91c0b4f996d0);
      }

      .uuid-0f7a7594-39af-412a-b967-9d306b73b27b {
        fill: url(#uuid-98eafa7b-b08c-4e2e-897b-e74138967792);
      }

      .uuid-8de2496f-b092-4879-bb46-709dc08d10d1 {
        clip-path: url(#uuid-7f2a08dc-ed6a-412a-ab39-4779801dcbd3);
      }

      .uuid-20c20bce-b9f8-44c5-9c95-906d3c8c722c {
        filter: url(#uuid-c9bc2192-2677-49bf-9fef-c45a1f9e30ae);
      }

      .uuid-315294cd-715d-4c6b-a47b-a8750918eb97 {
        clip-path: url(#uuid-b0053ddc-9b7d-4c74-89fe-5bc20d3edd59);
      }

      .uuid-e313da1c-42a1-48e0-8812-2bd2b8b53941 {
        clip-path: url(#uuid-1bfc8e2a-2899-4117-8e96-cf8b7bddfef4);
      }
    </style>
    <clipPath id="uuid-d4ebf40f-3b39-4122-9d26-91c0b4f996d0">
      <rect class="uuid-7cf3219c-a795-4225-985a-599712c02b2a" width="170.08" height="37.92"/>
    </clipPath>
    <clipPath id="uuid-1bfc8e2a-2899-4117-8e96-cf8b7bddfef4">
      <rect class="uuid-7cf3219c-a795-4225-985a-599712c02b2a" width="170.08" height="37.92"/>
    </clipPath>
    <clipPath id="uuid-e277108d-3eac-4110-9546-af9beb478027">
      <rect class="uuid-7cf3219c-a795-4225-985a-599712c02b2a" width="170.08" height="37.92"/>
    </clipPath>
    <clipPath id="uuid-b0053ddc-9b7d-4c74-89fe-5bc20d3edd59">
      <rect class="uuid-7cf3219c-a795-4225-985a-599712c02b2a" width="170.08" height="37.92"/>
    </clipPath>
    <clipPath id="uuid-7f2a08dc-ed6a-412a-ab39-4779801dcbd3">
      <rect class="uuid-7cf3219c-a795-4225-985a-599712c02b2a" width="170.08" height="37.92"/>
    </clipPath>
    <filter id="uuid-c9bc2192-2677-49bf-9fef-c45a1f9e30ae" x="-4.09" y="-22.68" width="174.17" height="60.61" color-interpolation-filters="sRGB" filterUnits="userSpaceOnUse">
      <feFlood flood-color="#fff" result="bg"/>
      <feBlend in="SourceGraphic" in2="bg"/>
    </filter>
    <linearGradient id="uuid-98eafa7b-b08c-4e2e-897b-e74138967792" data-name="Unbenannter Verlauf" x1="-18.5" y1="263.62" x2="-17.47" y2="263.62" gradientTransform="translate(368.58 -5103.63) scale(19.43)" gradientUnits="userSpaceOnUse">
      <stop offset="0" stop-color="#fff"/>
      <stop offset="1" stop-color="#000"/>
    </linearGradient>
    <mask id="uuid-21b09e18-7f6d-4fc9-834f-3cff07a468d1" data-name="mask" x="-4.09" y="-22.68" width="174.17" height="60.61" maskUnits="userSpaceOnUse">
      <g class="uuid-20c20bce-b9f8-44c5-9c95-906d3c8c722c">
        <rect class="uuid-0f7a7594-39af-412a-b967-9d306b73b27b" width="170.08" height="37.92"/>
      </g>
    </mask>
    <clipPath id="uuid-37acd3c5-65fb-4bc0-9205-e088052f7660">
      <rect class="uuid-7cf3219c-a795-4225-985a-599712c02b2a" x="-4.09" y="-22.68" width="58.67" height="58.67"/>
    </clipPath>
  </defs>
  <g class="uuid-e61c2ff9-b789-420c-9b75-e9bddac03a25">
    <path class="uuid-e69809cc-ec59-4ce3-9407-5e9cdcf4dd9c" d="m54.39,28.92h-2.06c-.79,0-1.5-.03-2.09-.09-.61-.06-1.15-.16-1.6-.29-.48-.14-.88-.32-1.21-.54-.34-.23-.61-.5-.82-.82-.2-.31-.35-.67-.43-1.06-.07-.36-.11-.75-.11-1.18v-.59h2.72v.59c0,.49.08.76.15.89.08.16.21.27.4.35.26.11.62.19,1.08.22.51.03,1.15.05,1.91.05h2.06c.87,0,1.6-.04,2.17-.12.53-.08.94-.2,1.24-.35.24-.13.41-.29.5-.48.11-.23.16-.52.16-.87,0-.37-.04-.68-.12-.91-.05-.16-.16-.28-.33-.38-.15-.09-.46-.22-1.02-.29-.5-.07-1.18-.1-2.01-.1h-2.13c-.96,0-1.8-.04-2.49-.11-.7-.07-1.31-.18-1.8-.32-.53-.15-.94-.34-1.28-.58-.34-.25-.61-.54-.79-.86-.18-.31-.3-.67-.35-1.05-.05-.33-.07-.7-.07-1.09,0-.41.04-.81.11-1.17.08-.4.24-.77.47-1.09.23-.32.53-.61.91-.85.37-.24.83-.43,1.38-.58.52-.15,1.16-.26,1.89-.33.72-.07,1.57-.11,2.53-.11h1.55c.79,0,1.49.03,2.09.09.61.06,1.15.16,1.61.29.47.14.88.31,1.2.52.34.22.62.5.83.81.2.31.35.67.43,1.06.07.35.11.75.11,1.17v.59h-2.72v-.59c0-.48-.08-.74-.15-.87-.08-.15-.2-.26-.4-.34-.26-.11-.63-.18-1.08-.21-.51-.03-1.16-.05-1.91-.05h-1.55c-1.01,0-1.84.04-2.49.11-.6.07-1.08.17-1.41.32-.26.12-.44.26-.52.43-.11.21-.16.48-.16.82,0,.23.02.44.05.62.02.12.06.22.13.31.06.08.16.16.28.22.16.08.39.15.68.21.32.06.71.11,1.18.14.48.03,1.07.04,1.74.04h2.13c.87,0,1.63.04,2.25.11.64.07,1.2.19,1.65.34.48.16.88.37,1.19.62.31.26.55.55.72.88.17.32.27.68.32,1.07.04.35.06.73.06,1.13s-.04.81-.11,1.17c-.08.4-.23.77-.44,1.1-.21.34-.5.64-.85.89-.34.25-.78.46-1.29.63-.49.16-1.08.28-1.76.37-.66.08-1.45.12-2.32.12"/>
  </g>
  <polygon class="uuid-e69809cc-ec59-4ce3-9407-5e9cdcf4dd9c" points="63.72 15.07 63.72 17.53 69.91 17.53 69.91 28.63 72.63 28.63 72.63 17.53 78.83 17.53 78.83 15.07 63.72 15.07"/>
  <path class="uuid-e69809cc-ec59-4ce3-9407-5e9cdcf4dd9c" d="m84.13,25.79h5.94l1.61,2.84h2.97l-6.08-10.69-1.48,2.61.08.14,1.5,2.65h-3.16l-1.39,2.46Zm2.93-10.52l-.12-.2h-2.9l-7.74,13.56h3.14l1.62-2.84h.05l1.39-2.46h-.04l3.11-5.47v.02s1.49-2.61,1.49-2.61Z"/>
  <g class="uuid-e313da1c-42a1-48e0-8812-2bd2b8b53941">
    <path class="uuid-e69809cc-ec59-4ce3-9407-5e9cdcf4dd9c" d="m106.32,17.53c.67,0,1.25,0,1.72.02.44.02.8.05,1.08.1.31.06.45.13.51.16.07.04.11.09.14.15.05.1.08.25.09.43.01.24.02.53.02.87,0,.37,0,.68-.02.94-.01.21-.04.38-.1.51-.04.09-.09.16-.16.21-.06.04-.19.12-.49.18-.28.06-.64.1-1.07.12-.46.02-1.03.04-1.71.04h-6.63s-2.72,0-2.72,0v7.37h2.72v-4.9h6.38c.68,0,1.25.01,1.71.03.44.02.8.06,1.07.12.3.06.44.14.49.18.08.05.13.12.16.21.05.13.08.3.1.51.01.26.02.58.02.94v2.91h2.72v-2.91c0-.48-.02-.91-.07-1.28-.05-.42-.17-.8-.34-1.12-.14-.26-.33-.48-.55-.67.27-.19.49-.43.66-.71.21-.34.36-.74.45-1.2.08-.42.12-.92.12-1.47,0-.41,0-.79-.03-1.14-.02-.39-.1-.76-.23-1.08-.14-.36-.36-.67-.66-.93-.29-.25-.68-.46-1.18-.62-.46-.15-1.04-.26-1.72-.33-.67-.07-1.49-.1-2.45-.1h-9.35v2.47"/>
  </g>
  <path class="uuid-e69809cc-ec59-4ce3-9407-5e9cdcf4dd9c" d="m137.74,27.7l.42.93h2.09l3.39-5.98,3.36-7.58h-2.1l-.54.95-3.06,5.41-1.72,3.91-.17-.38-.05-.1-1.61,2.84Zm.2-5.96l-3.03-6.68h-2.56l-4.68,10.31-5.04-10.31h-3.11l6.64,13.56h2.94l4.53-10,2.69,5.95,1.61-2.84Z"/>
  <polygon class="uuid-e69809cc-ec59-4ce3-9407-5e9cdcf4dd9c" points="166.38 15.07 160.96 20.86 155.53 15.07 151.84 15.07 159.6 23.12 159.6 28.63 162.32 28.63 162.32 23.12 170.08 15.07 166.38 15.07"/>
  <polygon class="uuid-e69809cc-ec59-4ce3-9407-5e9cdcf4dd9c" points="63.72 15.07 63.72 17.53 69.91 17.53 69.91 28.63 72.63 28.63 72.63 17.53 78.83 17.53 78.83 15.07 63.72 15.07"/>
  <g class="uuid-6c98e37b-e590-4028-b053-b0edcf6130d8">
    <path class="uuid-e69809cc-ec59-4ce3-9407-5e9cdcf4dd9c" d="m106.32,17.53c.67,0,1.25,0,1.72.02.44.02.8.05,1.08.1.31.06.45.13.51.16.07.04.11.09.14.15.05.1.08.25.09.43.01.24.02.53.02.87,0,.37,0,.68-.02.94-.01.21-.04.38-.1.51-.04.09-.09.16-.16.21-.06.04-.19.12-.49.18-.28.06-.64.1-1.07.12-.46.02-1.03.04-1.71.04h-6.63s-2.72,0-2.72,0v7.37h2.72v-4.9h6.38c.68,0,1.25.01,1.71.03.44.02.8.06,1.07.12.3.06.44.14.49.18.08.05.13.12.16.21.05.13.08.3.1.51.01.26.02.58.02.94v2.91h2.72v-2.91c0-.48-.02-.91-.07-1.28-.05-.42-.17-.8-.34-1.12-.14-.26-.33-.48-.55-.67.27-.19.49-.43.66-.71.21-.34.36-.74.45-1.2.08-.42.12-.92.12-1.47,0-.41,0-.79-.03-1.14-.02-.39-.1-.76-.23-1.08-.14-.36-.36-.67-.66-.93-.29-.25-.68-.46-1.18-.62-.46-.15-1.04-.26-1.72-.33-.67-.07-1.49-.1-2.45-.1h-9.35v2.47"/>
  </g>
  <polygon class="uuid-e69809cc-ec59-4ce3-9407-5e9cdcf4dd9c" points="166.38 15.07 160.96 20.86 155.53 15.07 151.84 15.07 159.6 23.12 159.6 28.63 162.32 28.63 162.32 23.12 170.08 15.07 166.38 15.07"/>
  <g class="uuid-315294cd-715d-4c6b-a47b-a8750918eb97">
    <path class="uuid-d09230a4-7aab-4a5c-be63-f869fc8aba47" d="m167.78,35.57v-1.17h.34c.24,0,.41.04.53.13.12.09.17.23.17.43,0,.21-.05.37-.16.46-.11.1-.27.15-.48.15h-.4Zm.37.66l.83,1.55h1.08l-1.03-1.72c.27-.13.47-.27.59-.44.12-.17.19-.39.19-.65,0-.42-.14-.73-.42-.93-.28-.2-.7-.3-1.25-.3h-1.33v4.05h.96v-1.55h.37Zm-3.72-1.82l.1-.68h-2.49v4.05h2.49v-.69h-1.53v-1.03h1.25v-.67h-1.25v-.97h1.43Zm-6.93.01h.3c.21,0,.38.04.52.11.14.07.25.2.33.39.08.19.12.46.12.81,0,.51-.08.86-.25,1.06-.16.2-.4.3-.72.3h-.32v-2.66Zm.17-.7h-1.13v4.05h1.22c.6,0,1.08-.15,1.46-.46.37-.31.56-.84.56-1.59s-.19-1.29-.58-1.58c-.38-.29-.89-.43-1.53-.43m-3.58,0h-.96v4.05h.96v-4.05Zm-4.08,4.05l1.13-4.05h-.98l-.73,3.3-.77-3.3h-1.01l1.17,4.05h1.19Zm-5.92-3.45c.28,0,.48.11.62.33.14.22.2.59.2,1.09s-.07.87-.2,1.09c-.13.22-.34.34-.62.34s-.48-.11-.61-.34c-.14-.23-.2-.59-.2-1.09s.07-.86.2-1.09c.13-.22.34-.34.62-.34m0-.7c-.38,0-.7.08-.98.25-.27.17-.48.41-.63.73s-.22.7-.22,1.13.07.83.22,1.15.36.56.63.73c.27.17.6.25.98.25s.7-.09.98-.26c.27-.17.49-.41.63-.73.15-.32.22-.7.22-1.14,0-.67-.16-1.2-.48-1.57-.32-.37-.77-.56-1.35-.56m-5.92,1.94v-1.17h.35c.24,0,.41.04.53.13.12.09.17.23.17.43,0,.21-.05.37-.16.46-.11.1-.27.15-.48.15h-.4Zm.37.66l.83,1.55h1.08l-1.03-1.72c.27-.13.46-.27.59-.44.12-.17.19-.39.19-.65,0-.42-.14-.73-.42-.93-.28-.2-.7-.3-1.25-.3h-1.33v4.05h.96v-1.55h.37Zm-5.22-.49h-.36v-1.33h.34c.48,0,.71.21.71.64,0,.24-.06.42-.18.53-.12.11-.29.16-.52.16m0-2.01h-1.31v4.05h.96v-1.35h.44c.49,0,.88-.12,1.17-.35.29-.23.44-.58.44-1.03s-.15-.77-.44-.99-.71-.33-1.25-.33m-6.45.68l.1-.68h-2.49v4.05h2.49v-.69h-1.53v-1.03h1.25v-.67h-1.25v-.97h1.43Zm-5.81-.78c-.35,0-.66.08-.94.25-.27.17-.49.41-.65.73-.16.32-.24.7-.24,1.14s.08.84.23,1.16c.15.32.37.56.65.73.28.16.6.25.98.25.26,0,.5-.05.72-.15.22-.1.4-.22.55-.37l-.43-.56c-.15.11-.28.19-.39.25-.12.06-.25.09-.39.09-.28,0-.5-.11-.66-.34-.16-.23-.24-.58-.24-1.05s.08-.83.24-1.06c.16-.23.37-.35.64-.35s.5.1.73.29l.47-.56c-.18-.15-.36-.26-.56-.33-.2-.07-.43-.11-.69-.11m-4.09.1h-.96v4.05h.96v-4.05Zm-4.08,4.05l1.13-4.05h-.98l-.73,3.3-.77-3.3h-1.01l1.17,4.05h1.19Zm-6.16-2.21v-1.17h.35c.24,0,.41.04.53.13.12.09.17.23.17.43,0,.21-.05.37-.16.46-.11.1-.27.15-.48.15h-.4Zm.37.66l.83,1.55h1.08l-1.03-1.72c.27-.13.47-.27.59-.44.12-.17.19-.39.19-.65,0-.42-.14-.73-.42-.93-.28-.2-.7-.3-1.25-.3h-1.33v4.05h.96v-1.55h.37Zm-3.72-1.82l.1-.68h-2.49v4.05h2.49v-.69h-1.53v-1.03h1.25v-.67h-1.25v-.97h1.43Zm-6.12-.78c-.28,0-.53.05-.75.14-.22.1-.4.23-.52.41-.13.18-.19.38-.19.62,0,.3.09.56.28.75.19.2.51.37.96.5.2.06.35.12.46.17.1.05.18.12.22.18.04.07.06.15.06.26,0,.16-.06.28-.17.37-.11.09-.27.13-.47.13-.38,0-.72-.13-1.02-.4l-.49.54c.18.17.4.32.66.42.26.1.55.16.88.16s.62-.05.86-.16c.24-.11.43-.26.56-.45.13-.19.19-.42.19-.67,0-.35-.1-.63-.29-.82-.19-.19-.5-.36-.91-.49-.22-.07-.38-.13-.49-.18-.11-.05-.19-.1-.23-.16-.04-.06-.06-.13-.06-.22,0-.13.05-.23.15-.3.1-.07.23-.1.4-.1.32,0,.61.11.88.34l.45-.52c-.18-.18-.39-.31-.61-.39-.22-.09-.49-.13-.79-.13m-6.44.78l.1-.68h-2.49v4.05h2.49v-.69h-1.53v-1.03h1.25v-.67h-1.25v-.97h1.43Zm-4.56.05l.09-.74h-3.1v.74h1.05v3.32h.96v-3.32h1Zm-5.77,1.75h-.85l.43-1.79.43,1.79Zm.17.7l.2.87h1.02l-1.22-4.05h-1.16l-1.22,4.05h.99l.2-.87h1.19Zm-6.28-1.34v-1.17h.35c.24,0,.41.04.53.13.12.09.17.23.17.43,0,.21-.05.37-.16.46-.11.1-.27.15-.48.15h-.4Zm.37.66l.83,1.55h1.08l-1.03-1.72c.27-.13.46-.27.59-.44.12-.17.19-.39.19-.65,0-.42-.14-.73-.42-.93-.28-.2-.7-.3-1.25-.3h-1.33v4.05h.96v-1.55h.37Zm-5.43-1.9c.28,0,.48.11.62.33.14.22.2.59.2,1.09s-.07.87-.2,1.09c-.13.22-.34.34-.62.34s-.48-.11-.61-.34c-.14-.23-.2-.59-.2-1.09s.07-.86.2-1.09c.13-.22.34-.34.62-.34m0-.7c-.38,0-.7.08-.98.25-.27.17-.48.41-.63.73s-.22.7-.22,1.13.07.83.22,1.15.36.56.63.73c.27.17.6.25.98.25s.7-.09.98-.26c.27-.17.49-.41.63-.73.15-.32.22-.7.22-1.14,0-.67-.16-1.2-.48-1.57-.32-.37-.77-.56-1.35-.56m-5.53,2.11h-.36v-1.33h.34c.48,0,.71.21.71.64,0,.24-.06.42-.18.53-.12.11-.29.16-.52.16m0-2.01h-1.31v4.05h.96v-1.35h.44c.49,0,.88-.12,1.17-.35.29-.23.44-.58.44-1.03s-.15-.77-.44-.99-.71-.33-1.25-.33m-5.66,1.84v-1.17h.34c.24,0,.41.04.53.13.12.09.17.23.17.43,0,.21-.05.37-.16.46-.11.1-.27.15-.48.15h-.4Zm.37.66l.83,1.55h1.08l-1.03-1.72c.27-.13.47-.27.59-.44.12-.17.19-.39.19-.65,0-.42-.14-.73-.42-.93-.28-.2-.7-.3-1.25-.3h-1.33v4.05h.96v-1.55h.37Zm-5.43-1.9c.28,0,.48.11.62.33.14.22.2.59.2,1.09s-.07.87-.2,1.09c-.13.22-.34.34-.62.34s-.48-.11-.61-.34c-.14-.23-.2-.59-.2-1.09s.07-.86.2-1.09c.13-.22.34-.34.62-.34m0-.7c-.38,0-.7.08-.98.25-.27.17-.48.41-.63.73-.15.32-.22.7-.22,1.13s.07.83.22,1.15c.15.32.36.56.63.73.27.17.6.25.98.25s.7-.09.98-.26c.27-.17.49-.41.63-.73.15-.32.22-.7.22-1.14,0-.67-.16-1.2-.48-1.57-.32-.37-.77-.56-1.35-.56m-4.94,0c-.35,0-.66.08-.94.25-.27.17-.49.41-.65.73-.16.32-.24.7-.24,1.14s.08.84.23,1.16c.15.32.37.56.65.73.28.16.6.25.98.25.26,0,.5-.05.72-.15.22-.1.4-.22.55-.37l-.43-.56c-.15.11-.28.19-.39.25-.12.06-.25.09-.39.09-.28,0-.5-.11-.66-.34-.16-.23-.24-.58-.24-1.05s.08-.83.24-1.06c.16-.23.37-.35.64-.35s.5.1.73.29l.47-.56c-.18-.15-.36-.26-.56-.33-.2-.07-.43-.11-.69-.11"/>
  </g>
  <path class="uuid-e69809cc-ec59-4ce3-9407-5e9cdcf4dd9c" d="m145.09,25.79h5.87l1.61,2.84h2.97l-6.04-10.63-1.48,2.61,1.54,2.72h-3.08l-1.39,2.46Zm2.81-10.59l-.08-.13h-2.9l-7.74,13.56h3.12l7.6-13.43Z"/>
  <polygon class="uuid-e69809cc-ec59-4ce3-9407-5e9cdcf4dd9c" points="28.73 16.58 18.99 6.84 16.58 9.25 16.59 9.27 11.71 14.15 9.96 12.41 7.55 14.82 11.69 18.96 11.71 18.94 11.73 18.96 19.01 11.68 28.73 21.41 31.15 18.99 31.15 18.99 47.3 2.84 44.88 .42 28.73 16.58"/>
  <g class="uuid-8de2496f-b092-4879-bb46-709dc08d10d1">
    <path class="uuid-d09230a4-7aab-4a5c-be63-f869fc8aba47" d="m33.64,6.93l-.17-.17C30,2.63,24.79,0,18.96,0,8.49,0,0,8.49,0,18.96h3.47c0-8.69,6.94-15.73,15.5-15.73,3.77,0,7.22,1.37,9.9,3.64l-2.43,2.43,2.42,2.42,4.79-4.79Zm4.28,12.03h-3.47c0,8.69-6.94,15.73-15.5,15.73-3.65,0-7.01-1.28-9.65-3.43l12.17-12.17-2.42-2.42-12.16,12.16s-.02-.02-.02-.03l-2.4,2.39c3.48,4.11,8.68,6.73,14.48,6.73,10.47,0,18.96-8.49,18.96-18.96"/>
    <g class="uuid-d4f3ba51-e2e9-4c05-b594-687e9902cea9">
      <g class="uuid-19c5ce74-4e5f-463c-a212-927219e516fd">
        <polygon class="uuid-48efc3a7-f6f8-4d24-af3e-5ee6c47d0bb4" points="44.89 .42 28.73 16.58 18.99 6.84 16.57 9.25 16.59 9.27 11.71 14.15 9.96 12.41 7.55 14.82 11.68 18.96 11.71 18.94 11.73 18.96 19.01 11.68 28.73 21.41 31.15 18.99 31.15 18.99 47.3 2.84 44.89 .42"/>
      </g>
    </g>
  </g>
</svg>